# https://github.com/mikedh/trimesh

o Mesh 0
v 2.27300000 0.75700000 1.26300000
v 2.27300000 0.75700000 1.01000000
v 2.27300000 0.50500000 1.51500000
v 2.27300000 0.50500000 1.26300000
v 2.27300000 0.50500000 1.01000000
v 2.27300000 0.25200000 1.51500000
v 2.27300000 0.25200000 1.26300000
v 2.27300000 0.25200000 1.01000000
v 2.27300000 0.00000000 1.26300000
v 2.27300000 0.00000000 1.01000000
v 2.02000000 0.75700000 1.26300000
v 2.02000000 0.75700000 1.01000000
v 2.02000000 0.50500000 1.51500000
v 2.02000000 0.50500000 1.26300000
v 2.02000000 0.50500000 1.01000000
v 2.02000000 0.25200000 1.51500000
v 2.02000000 0.25200000 1.26300000
v 2.02000000 0.25200000 1.01000000
v 2.02000000 0.00000000 1.26300000
v 2.02000000 0.00000000 1.01000000
f 16 17 7
f 6 7 4
f 3 4 14
f 13 14 17
f 13 16 6
f 4 5 2
f 1 2 12
f 11 12 15
f 12 2 5
f 11 14 4
f 7 8 5
f 14 15 18
f 15 5 8
f 19 20 10
f 9 10 8
f 17 18 20
f 18 8 10
f 17 19 9
f 7 6 16
f 4 3 6
f 14 13 3
f 17 16 13
f 6 3 13
f 2 1 4
f 12 11 1
f 15 14 11
f 5 15 12
f 4 1 11
f 5 4 7
f 18 17 14
f 8 18 15
f 10 9 19
f 8 7 9
f 20 19 17
f 10 20 18
f 9 7 17

