# https://github.com/mikedh/trimesh

o Mesh 0
v 0.25200000 0.50500000 0.75700000
v 0.25200000 0.50500000 0.50500000
v 0.25200000 0.25200000 0.75700000
v 0.25200000 0.25200000 0.50500000
v 0.00000000 0.50500000 0.75700000
v 0.00000000 0.50500000 0.50500000
v 0.00000000 0.25200000 0.75700000
v 0.00000000 0.25200000 0.50500000
v 0.00000000 0.50500000 1.01000000
v 0.00000000 0.25200000 1.01000000
v -0.25200000 0.50500000 1.01000000
v -0.25200000 0.50500000 0.75700000
v -0.25200000 0.50500000 0.50500000
v -0.25200000 0.25200000 1.01000000
v -0.25200000 0.25200000 0.75700000
v -0.25200000 0.25200000 0.50500000
v -0.50500000 0.50500000 1.01000000
v -0.50500000 0.50500000 0.75700000
v -0.50500000 0.25200000 1.01000000
v -0.50500000 0.25200000 0.75700000
f 7 8 4
f 3 4 2
f 1 2 6
f 6 2 4
f 5 7 3
f 15 16 8
f 5 6 13
f 12 13 16
f 13 6 8
f 14 15 7
f 10 7 5
f 9 5 12
f 11 14 10
f 19 20 15
f 11 12 18
f 17 18 20
f 18 12 15
f 17 19 14
f 4 3 7
f 2 1 3
f 6 5 1
f 4 8 6
f 3 1 5
f 8 7 15
f 13 12 5
f 16 15 12
f 8 16 13
f 7 10 14
f 5 9 10
f 12 11 9
f 10 9 11
f 15 14 19
f 18 17 11
f 20 19 17
f 15 20 18
f 14 11 17

