# https://github.com/mikedh/trimesh

o Mesh 0
v 1.51500000 1.01000000 0.50500000
v 1.51500000 1.01000000 0.25200000
v 1.51500000 0.75700000 0.50500000
v 1.51500000 0.75700000 0.25200000
v 1.26300000 1.01000000 0.50500000
v 1.26300000 1.01000000 0.25200000
v 1.26300000 1.01000000 0.00000000
v 1.26300000 0.75700000 0.50500000
v 1.26300000 0.75700000 0.25200000
v 1.26300000 0.75700000 0.00000000
v 1.01000000 1.01000000 0.50500000
v 1.01000000 1.01000000 0.25200000
v 1.01000000 1.01000000 0.00000000
v 1.01000000 0.75700000 0.50500000
v 1.01000000 0.75700000 0.25200000
v 1.01000000 0.75700000 0.00000000
v 0.75700000 1.01000000 0.25200000
v 0.75700000 1.01000000 0.00000000
v 0.75700000 0.75700000 0.25200000
v 0.75700000 0.75700000 0.00000000
f 19 20 16
f 12 13 18
f 17 18 20
f 18 13 16
f 17 19 15
f 8 9 4
f 3 4 2
f 1 2 6
f 6 2 4
f 5 8 3
f 14 15 9
f 5 6 12
f 11 12 15
f 11 14 8
f 15 16 10
f 9 10 7
f 6 7 13
f 13 7 10
f 16 15 19
f 18 17 12
f 20 19 17
f 16 20 18
f 15 12 17
f 4 3 8
f 2 1 3
f 6 5 1
f 4 9 6
f 3 1 5
f 9 8 14
f 12 11 5
f 15 14 11
f 8 5 11
f 10 9 15
f 7 6 9
f 13 12 6
f 10 16 13

