# https://github.com/mikedh/trimesh

o Mesh 0
v 1.26300000 1.01000000 1.01000000
v 1.26300000 1.01000000 0.75700000
v 1.26300000 1.01000000 0.50500000
v 1.26300000 0.75700000 1.01000000
v 1.26300000 0.75700000 0.75700000
v 1.26300000 0.75700000 0.50500000
v 1.01000000 1.01000000 1.01000000
v 1.01000000 1.01000000 0.75700000
v 1.01000000 1.01000000 0.50500000
v 1.01000000 1.01000000 0.25200000
v 1.01000000 0.75700000 1.01000000
v 1.01000000 0.75700000 0.75700000
v 1.01000000 0.75700000 0.50500000
v 1.01000000 0.75700000 0.25200000
v 0.75700000 1.01000000 0.75700000
v 0.75700000 1.01000000 0.50500000
v 0.75700000 1.01000000 0.25200000
v 0.75700000 0.75700000 0.75700000
v 0.75700000 0.75700000 0.50500000
v 0.75700000 0.75700000 0.25200000
f 11 12 5
f 4 5 2
f 1 2 8
f 7 8 12
f 7 11 4
f 18 19 13
f 8 9 16
f 15 16 19
f 15 18 12
f 12 13 6
f 5 6 3
f 2 3 9
f 9 3 6
f 19 20 14
f 13 14 10
f 9 10 17
f 16 17 20
f 17 10 14
f 5 4 11
f 2 1 4
f 8 7 1
f 12 11 7
f 4 1 7
f 13 12 18
f 16 15 8
f 19 18 15
f 12 8 15
f 6 5 12
f 3 2 5
f 9 8 2
f 6 13 9
f 14 13 19
f 10 9 13
f 17 16 9
f 20 19 16
f 14 20 17

