# https://github.com/mikedh/trimesh

o Mesh 0
v 1.26300000 0.00000000 1.01000000
v 1.26300000 0.00000000 0.75700000
v 1.26300000 0.00000000 0.50500000
v 1.26300000 -0.25200000 1.01000000
v 1.26300000 -0.25200000 0.75700000
v 1.26300000 -0.25200000 0.50500000
v 1.01000000 0.00000000 0.25200000
v 1.01000000 0.00000000 1.01000000
v 1.01000000 0.00000000 0.75700000
v 1.01000000 0.00000000 0.50500000
v 1.01000000 -0.25200000 1.01000000
v 1.01000000 -0.25200000 0.75700000
v 1.01000000 -0.25200000 0.50500000
v 1.01000000 -0.25200000 0.25200000
v 0.75700000 0.00000000 0.25200000
v 0.75700000 0.00000000 0.75700000
v 0.75700000 0.00000000 0.50500000
v 0.75700000 -0.25200000 0.75700000
v 0.75700000 -0.25200000 0.50500000
v 0.75700000 -0.25200000 0.25200000
f 11 12 5
f 4 5 2
f 1 2 9
f 8 9 12
f 8 11 4
f 18 19 13
f 9 10 17
f 16 17 19
f 16 18 12
f 12 13 6
f 5 6 3
f 2 3 10
f 10 3 6
f 19 20 14
f 13 14 7
f 10 7 15
f 17 15 20
f 15 7 14
f 5 4 11
f 2 1 4
f 9 8 1
f 12 11 8
f 4 1 8
f 13 12 18
f 17 16 9
f 19 18 16
f 12 9 16
f 6 5 12
f 3 2 5
f 10 9 2
f 6 13 10
f 14 13 19
f 7 10 13
f 15 17 10
f 20 19 17
f 14 20 15

