# https://github.com/mikedh/trimesh

o Mesh 0
v 2.52500000 1.01000000 1.01000000
v 2.52500000 1.01000000 0.75700000
v 2.52500000 1.01000000 0.50500000
v 2.52500000 0.75700000 1.01000000
v 2.52500000 0.75700000 0.75700000
v 2.52500000 0.75700000 0.50500000
v 2.27300000 1.01000000 1.01000000
v 2.27300000 1.01000000 0.75700000
v 2.27300000 1.01000000 0.50500000
v 2.27300000 0.75700000 1.01000000
v 2.27300000 0.75700000 0.75700000
v 2.27300000 0.75700000 0.50500000
v 2.02000000 1.01000000 1.01000000
v 2.02000000 1.01000000 0.75700000
v 2.02000000 0.75700000 1.01000000
v 2.02000000 0.75700000 0.75700000
v 1.76800000 1.01000000 1.01000000
v 1.76800000 1.01000000 0.75700000
v 1.76800000 0.75700000 1.01000000
v 1.76800000 0.75700000 0.75700000
v 1.51500000 1.01000000 1.01000000
v 1.51500000 1.01000000 0.75700000
v 1.51500000 0.75700000 1.01000000
v 1.51500000 0.75700000 0.75700000
f 11 12 6
f 5 6 3
f 2 3 9
f 8 9 12
f 9 3 6
f 15 16 11
f 7 8 14
f 14 8 11
f 13 15 10
f 23 24 20
f 17 18 22
f 21 22 24
f 22 18 20
f 21 23 19
f 19 20 16
f 13 14 18
f 18 14 16
f 17 19 15
f 10 11 5
f 4 5 2
f 1 2 8
f 7 10 4
f 6 5 11
f 3 2 5
f 9 8 2
f 12 11 8
f 6 12 9
f 11 10 15
f 14 13 7
f 11 16 14
f 10 7 13
f 20 19 23
f 22 21 17
f 24 23 21
f 20 24 22
f 19 17 21
f 16 15 19
f 18 17 13
f 16 20 18
f 15 13 17
f 5 4 10
f 2 1 4
f 8 7 1
f 4 1 7

