# https://github.com/mikedh/trimesh

o Mesh 0
v 2.27300000 1.01000000 0.75700000
v 2.27300000 1.01000000 0.50500000
v 2.27300000 0.75700000 0.75700000
v 2.27300000 0.75700000 0.50500000
v 2.02000000 1.01000000 0.75700000
v 2.02000000 1.01000000 0.50500000
v 2.02000000 0.75700000 0.75700000
v 2.02000000 0.75700000 0.50500000
v 1.76800000 1.01000000 0.75700000
v 1.76800000 1.01000000 0.50500000
v 1.76800000 0.75700000 0.75700000
v 1.76800000 0.75700000 0.50500000
v 1.51500000 1.01000000 1.01000000
v 1.51500000 1.01000000 0.75700000
v 1.51500000 1.01000000 0.50500000
v 1.51500000 0.75700000 1.01000000
v 1.51500000 0.75700000 0.75700000
v 1.51500000 0.75700000 0.50500000
v 1.26300000 1.01000000 1.01000000
v 1.26300000 1.01000000 0.75700000
v 1.26300000 1.01000000 0.50500000
v 1.26300000 0.75700000 1.01000000
v 1.26300000 0.75700000 0.75700000
v 1.26300000 0.75700000 0.50500000
f 22 23 17
f 16 17 14
f 13 14 20
f 19 20 23
f 19 22 16
f 23 24 18
f 14 15 21
f 20 21 24
f 21 15 18
f 17 18 12
f 9 10 15
f 15 10 12
f 14 17 11
f 11 12 8
f 5 6 10
f 10 6 8
f 9 11 7
f 7 8 4
f 3 4 2
f 1 2 6
f 6 2 4
f 5 7 3
f 17 16 22
f 14 13 16
f 20 19 13
f 23 22 19
f 16 13 19
f 18 17 23
f 21 20 14
f 24 23 20
f 18 24 21
f 12 11 17
f 15 14 9
f 12 18 15
f 11 9 14
f 8 7 11
f 10 9 5
f 8 12 10
f 7 5 9
f 4 3 7
f 2 1 3
f 6 5 1
f 4 8 6
f 3 1 5

