# https://github.com/mikedh/trimesh

o Mesh 0
v 1.01000000 1.01000000 1.26300000
v 1.01000000 1.01000000 1.01000000
v 1.01000000 1.01000000 0.75700000
v 1.01000000 0.75700000 1.26300000
v 1.01000000 0.75700000 1.01000000
v 1.01000000 0.75700000 0.75700000
v 1.01000000 0.50500000 1.01000000
v 1.01000000 0.50500000 0.75700000
v 1.01000000 0.25200000 1.01000000
v 1.01000000 0.25200000 0.75700000
v 1.01000000 0.00000000 1.01000000
v 1.01000000 0.00000000 0.75700000
v 0.75700000 1.01000000 1.26300000
v 0.75700000 1.01000000 1.01000000
v 0.75700000 1.01000000 0.75700000
v 0.75700000 0.75700000 1.26300000
v 0.75700000 0.75700000 1.01000000
v 0.75700000 0.75700000 0.75700000
v 0.75700000 0.50500000 1.01000000
v 0.75700000 0.50500000 0.75700000
v 0.75700000 0.25200000 1.01000000
v 0.75700000 0.25200000 0.75700000
v 0.75700000 0.00000000 1.01000000
v 0.75700000 0.00000000 0.75700000
f 11 12 10
f 21 22 24
f 23 24 12
f 24 22 10
f 23 11 9
f 9 10 8
f 19 20 22
f 22 20 8
f 21 9 7
f 4 5 2
f 1 2 14
f 13 14 17
f 16 17 5
f 16 4 1
f 7 8 6
f 17 18 20
f 20 18 6
f 19 7 5
f 5 6 3
f 2 3 15
f 14 15 18
f 18 15 3
f 10 9 11
f 24 23 21
f 12 11 23
f 10 12 24
f 9 21 23
f 8 7 9
f 22 21 19
f 8 10 22
f 7 19 21
f 2 1 4
f 14 13 1
f 17 16 13
f 5 4 16
f 1 13 16
f 6 5 7
f 20 19 17
f 6 8 20
f 5 17 19
f 3 2 5
f 15 14 2
f 18 17 14
f 3 6 18

