# https://github.com/mikedh/trimesh

o Mesh 0
v 1.01000000 0.75700000 1.26300000
v 1.01000000 0.75700000 1.01000000
v 1.01000000 0.50500000 1.26300000
v 1.01000000 0.50500000 1.01000000
v 1.01000000 0.25200000 1.26300000
v 1.01000000 0.25200000 1.01000000
v 1.01000000 0.00000000 1.26300000
v 1.01000000 0.00000000 1.01000000
v 1.01000000 0.00000000 0.75700000
v 1.01000000 -0.25200000 1.26300000
v 1.01000000 -0.25200000 1.01000000
v 1.01000000 -0.25200000 0.75700000
v 0.75700000 0.75700000 1.26300000
v 0.75700000 0.75700000 1.01000000
v 0.75700000 0.50500000 1.26300000
v 0.75700000 0.50500000 1.01000000
v 0.75700000 0.25200000 1.26300000
v 0.75700000 0.25200000 1.01000000
v 0.75700000 0.00000000 1.26300000
v 0.75700000 0.00000000 1.01000000
v 0.75700000 0.00000000 0.75700000
v 0.75700000 -0.25200000 1.26300000
v 0.75700000 -0.25200000 1.01000000
v 0.75700000 -0.25200000 0.75700000
f 10 11 8
f 19 20 23
f 22 23 11
f 22 10 7
f 11 12 9
f 8 9 21
f 20 21 24
f 23 24 12
f 24 21 9
f 5 6 4
f 15 16 18
f 18 16 4
f 17 5 3
f 3 4 2
f 1 2 14
f 13 14 16
f 16 14 2
f 15 3 1
f 7 8 6
f 17 18 20
f 20 18 6
f 19 7 5
f 8 7 10
f 23 22 19
f 11 10 22
f 7 19 22
f 9 8 11
f 21 20 8
f 24 23 20
f 12 11 23
f 9 12 24
f 4 3 5
f 18 17 15
f 4 6 18
f 3 15 17
f 2 1 3
f 14 13 1
f 16 15 13
f 2 4 16
f 1 13 15
f 6 5 7
f 20 19 17
f 6 8 20
f 5 17 19

