# https://github.com/mikedh/trimesh

o Mesh 0
v 2.52500000 0.00000000 0.50500000
v 2.52500000 0.00000000 0.25200000
v 2.52500000 0.00000000 0.00000000
v 2.52500000 -0.25200000 0.50500000
v 2.52500000 -0.25200000 0.25200000
v 2.52500000 -0.25200000 0.00000000
v 2.27300000 0.00000000 0.50500000
v 2.27300000 0.00000000 0.25200000
v 2.27300000 0.00000000 0.00000000
v 2.27300000 -0.25200000 0.50500000
v 2.27300000 -0.25200000 0.25200000
v 2.27300000 -0.25200000 0.00000000
v 2.02000000 0.00000000 0.50500000
v 2.02000000 0.00000000 0.25200000
v 2.02000000 0.00000000 0.00000000
v 2.02000000 -0.25200000 0.50500000
v 2.02000000 -0.25200000 0.25200000
v 2.02000000 -0.25200000 0.00000000
f 16 17 11
f 7 8 14
f 13 14 17
f 13 16 10
f 17 18 12
f 8 9 15
f 14 15 18
f 15 9 12
f 10 11 5
f 4 5 2
f 1 2 8
f 7 10 4
f 11 12 6
f 5 6 3
f 2 3 9
f 9 3 6
f 11 10 16
f 14 13 7
f 17 16 13
f 10 7 13
f 12 11 17
f 15 14 8
f 18 17 14
f 12 18 15
f 5 4 10
f 2 1 4
f 8 7 1
f 4 1 7
f 6 5 11
f 3 2 5
f 9 8 2
f 6 12 9

