# https://github.com/mikedh/trimesh

o Mesh 0
v 2.52500000 0.25200000 1.01000000
v 2.52500000 0.25200000 0.75700000
v 2.52500000 0.25200000 0.50500000
v 2.52500000 0.25200000 0.25200000
v 2.52500000 0.25200000 0.00000000
v 2.52500000 0.00000000 1.01000000
v 2.52500000 0.00000000 0.75700000
v 2.52500000 0.00000000 0.50500000
v 2.52500000 0.00000000 0.25200000
v 2.52500000 0.00000000 0.00000000
v 2.27300000 0.25200000 1.01000000
v 2.27300000 0.25200000 0.75700000
v 2.27300000 0.25200000 0.50500000
v 2.27300000 0.25200000 0.25200000
v 2.27300000 0.25200000 0.00000000
v 2.27300000 0.00000000 1.01000000
v 2.27300000 0.00000000 0.75700000
v 2.27300000 0.00000000 0.50500000
v 2.27300000 0.00000000 0.25200000
v 2.27300000 0.00000000 0.00000000
f 19 20 10
f 9 10 5
f 4 5 15
f 14 15 20
f 15 5 10
f 18 19 9
f 8 9 4
f 3 4 14
f 13 14 19
f 17 18 8
f 7 8 3
f 2 3 13
f 12 13 18
f 16 17 7
f 6 7 2
f 1 2 12
f 11 12 17
f 11 16 6
f 10 9 19
f 5 4 9
f 15 14 4
f 20 19 14
f 10 20 15
f 9 8 18
f 4 3 8
f 14 13 3
f 19 18 13
f 8 7 17
f 3 2 7
f 13 12 2
f 18 17 12
f 7 6 16
f 2 1 6
f 12 11 1
f 17 16 11
f 6 1 11

