# https://github.com/mikedh/trimesh

o Mesh 0
v 0.50500000 0.75700000 1.26300000
v 0.50500000 0.75700000 1.01000000
v 0.50500000 0.50500000 1.26300000
v 0.50500000 0.50500000 1.01000000
v 0.50500000 0.50500000 0.75700000
v 0.50500000 0.25200000 1.26300000
v 0.50500000 0.25200000 1.01000000
v 0.50500000 0.25200000 0.75700000
v 0.50500000 0.00000000 1.26300000
v 0.50500000 0.00000000 1.01000000
v 0.25200000 0.75700000 1.26300000
v 0.25200000 0.75700000 1.01000000
v 0.25200000 0.50500000 1.26300000
v 0.25200000 0.50500000 1.01000000
v 0.25200000 0.50500000 0.75700000
v 0.25200000 0.25200000 1.26300000
v 0.25200000 0.25200000 1.01000000
v 0.25200000 0.25200000 0.75700000
v 0.25200000 0.00000000 1.26300000
v 0.25200000 0.00000000 1.01000000
f 19 20 10
f 9 10 7
f 16 17 20
f 17 7 10
f 16 19 9
f 6 7 4
f 13 14 17
f 13 16 6
f 3 4 2
f 1 2 12
f 11 12 14
f 12 2 4
f 11 13 3
f 17 18 8
f 7 8 5
f 4 5 15
f 14 15 18
f 15 5 8
f 10 9 19
f 7 6 9
f 20 19 16
f 10 20 17
f 9 6 16
f 4 3 6
f 17 16 13
f 6 3 13
f 2 1 3
f 12 11 1
f 14 13 11
f 4 14 12
f 3 1 11
f 8 7 17
f 5 4 7
f 15 14 4
f 18 17 14
f 8 18 15

