# https://github.com/mikedh/trimesh

o Mesh 0
v 2.52500000 0.25200000 1.76800000
v 2.52500000 0.25200000 1.51500000
v 2.52500000 0.00000000 1.76800000
v 2.52500000 0.00000000 1.51500000
v 2.27300000 0.25200000 2.02000000
v 2.27300000 0.25200000 1.76800000
v 2.27300000 0.25200000 1.51500000
v 2.27300000 0.00000000 2.02000000
v 2.27300000 0.00000000 1.76800000
v 2.27300000 0.00000000 1.51500000
v 2.02000000 0.25200000 2.02000000
v 2.02000000 0.25200000 1.76800000
v 2.02000000 0.25200000 1.51500000
v 2.02000000 0.00000000 2.02000000
v 2.02000000 0.00000000 1.76800000
v 2.02000000 0.00000000 1.51500000
v 1.76800000 0.25200000 2.02000000
v 1.76800000 0.25200000 1.76800000
v 1.76800000 0.00000000 2.02000000
v 1.76800000 0.00000000 1.76800000
f 19 20 15
f 11 12 18
f 17 18 20
f 18 12 15
f 17 19 14
f 9 10 4
f 3 4 2
f 1 2 7
f 7 2 4
f 6 9 3
f 14 15 9
f 8 9 6
f 5 6 12
f 11 14 8
f 15 16 10
f 6 7 13
f 12 13 16
f 13 7 10
f 15 14 19
f 18 17 11
f 20 19 17
f 15 20 18
f 14 11 17
f 4 3 9
f 2 1 3
f 7 6 1
f 4 10 7
f 3 1 6
f 9 8 14
f 6 5 8
f 12 11 5
f 8 5 11
f 10 9 15
f 13 12 6
f 16 15 12
f 10 16 13

