# https://github.com/mikedh/trimesh

o Mesh 0
v 0.75700000 1.01000000 0.75700000
v 0.75700000 1.01000000 0.50500000
v 0.75700000 1.01000000 0.25200000
v 0.75700000 1.01000000 0.00000000
v 0.75700000 0.75700000 0.75700000
v 0.75700000 0.75700000 0.50500000
v 0.75700000 0.75700000 0.25200000
v 0.75700000 0.75700000 0.00000000
v 0.75700000 0.50500000 0.50500000
v 0.75700000 0.50500000 0.25200000
v 0.50500000 1.01000000 0.75700000
v 0.50500000 1.01000000 0.50500000
v 0.50500000 1.01000000 0.25200000
v 0.50500000 1.01000000 0.00000000
v 0.50500000 0.75700000 0.75700000
v 0.50500000 0.75700000 0.50500000
v 0.50500000 0.75700000 0.25200000
v 0.50500000 0.75700000 0.00000000
v 0.50500000 0.50500000 0.50500000
v 0.50500000 0.50500000 0.25200000
f 19 20 10
f 9 10 7
f 16 17 20
f 17 7 10
f 16 19 9
f 13 14 18
f 17 18 8
f 7 8 4
f 3 4 14
f 8 18 14
f 11 12 16
f 15 16 6
f 5 6 2
f 1 2 12
f 5 1 11
f 12 13 17
f 6 7 3
f 2 3 13
f 10 9 19
f 7 6 9
f 20 19 16
f 10 20 17
f 9 6 16
f 18 17 13
f 8 7 17
f 4 3 7
f 14 13 3
f 14 4 8
f 16 15 11
f 6 5 15
f 2 1 5
f 12 11 1
f 11 15 5
f 17 16 12
f 3 2 6
f 13 12 2

