# https://github.com/mikedh/trimesh

o Mesh 0
v 1.26300000 0.25200000 0.50500000
v 1.26300000 0.25200000 0.25200000
v 1.26300000 0.00000000 0.50500000
v 1.26300000 0.00000000 0.25200000
v 1.01000000 0.25200000 0.75700000
v 1.01000000 0.25200000 0.50500000
v 1.01000000 0.25200000 0.25200000
v 1.01000000 0.25200000 0.00000000
v 1.01000000 0.00000000 0.75700000
v 1.01000000 0.00000000 0.50500000
v 1.01000000 0.00000000 0.25200000
v 1.01000000 0.00000000 0.00000000
v 0.75700000 0.25200000 0.75700000
v 0.75700000 0.25200000 0.50500000
v 0.75700000 0.25200000 0.25200000
v 0.75700000 0.25200000 0.00000000
v 0.75700000 0.00000000 0.75700000
v 0.75700000 0.00000000 0.50500000
v 0.75700000 0.00000000 0.25200000
v 0.75700000 0.00000000 0.00000000
f 10 11 4
f 3 4 2
f 1 2 7
f 7 2 4
f 6 10 3
f 19 20 12
f 11 12 8
f 7 8 16
f 15 16 20
f 16 8 12
f 18 19 11
f 6 7 15
f 14 15 19
f 17 18 10
f 9 10 6
f 5 6 14
f 13 14 18
f 13 17 9
f 4 3 10
f 2 1 3
f 7 6 1
f 4 11 7
f 3 1 6
f 12 11 19
f 8 7 11
f 16 15 7
f 20 19 15
f 12 20 16
f 11 10 18
f 15 14 6
f 19 18 14
f 10 9 17
f 6 5 9
f 14 13 5
f 18 17 13
f 9 5 13

